<svg width="64" height="64" viewBox="0 0 64 64" fill="none" xmlns="http://www.w3.org/2000/svg">
<path d="M64 32C64 26.1089 59.2244 21.3333 53.3333 21.3333L42.6667 21.3333V10.6666C42.6667 4.7756 37.891 -4.19617e-05 32 -4.19617e-05C26.109 -4.19617e-05 21.3333 4.7756 21.3333 10.6666L21.3333 32C21.3333 37.891 26.109 42.6666 32 42.6666L53.3333 42.6666C59.2244 42.6666 64 37.891 64 32Z" fill="#71D6EF"/>
<path d="M0 32C0 37.8911 4.77564 42.6667 10.6667 42.6667H21.3333V53.3334C21.3333 59.2244 26.109 64 32 64C37.891 64 42.6667 59.2244 42.6667 53.3334V32C42.6667 26.109 37.891 21.3334 32 21.3334H10.6667C4.77564 21.3334 0 26.109 0 32Z" fill="#FF9074"/>
<path d="M31.9984 21.3336C37.8892 21.3338 42.6644 26.1097 42.6644 32.0006V42.6666H31.9984C26.1075 42.6666 21.3316 37.8915 21.3314 32.0006V21.3336H31.9984Z" fill="#8463F6"/>
</svg>
