<svg width="32" height="32" viewBox="0 0 32 32" fill="none" xmlns="http://www.w3.org/2000/svg">
<path d="M26.0001 23.5039V23.5039C27.4388 23.2228 28.8112 22.2642 28.9683 20.8068C29 20.5131 29 20.1362 29 19.5039C29 17.6186 28.6225 17.0502 28.1603 16.5859C27.6981 16.1216 27.5 16.0039 25.7424 15.5005M6.25914 23.4223V23.4223C4.80473 23.153 3.4619 22.2172 3.14352 20.7728C3.05688 20.3797 3 19.9503 3 19.5005V19.5005C3 17.5007 4.17006 15.525 6.16973 15.5013C6.20937 15.5008 6.24968 15.5005 6.2907 15.5005M16.0001 6.99924C16.5305 6.99924 17.0395 6.87431 17.4145 6.49924C17.7896 6.12417 18.0001 5.52967 18.0001 4.99924C18.0001 4.46881 17.7896 3.87431 17.4145 3.49924C17.0395 3.12417 16.5308 3 16.0003 3C15.4699 3 15.0421 3.12807 14.667 3.50314C14.2919 3.87822 14.0001 4.46881 14.0001 4.99924C14.0001 5.52967 14.2919 6.12417 14.667 6.49924C15.0421 6.87431 15.4697 6.99924 16.0001 6.99924ZM16.0001 6.99924L16.0003 10.1672M12.0003 16.8339V18.1672M20.0003 16.8339V18.1672M26.0001 20.6706V18.0039C26.0001 17.9448 25.9998 17.8863 25.9991 17.8285C25.9501 13.4545 21.7079 10.1672 17.3337 10.1672V10.1672H14.667V10.1672C10.3767 10.1672 6.10817 13.5087 6.00449 17.7977C6.00158 17.9181 6.0001 18.0412 6.0001 18.1672V19.5005V21.0039V21.0039C6.0001 25.2077 10.2039 28.2926 14.4074 28.3372C14.4924 28.3381 14.5789 28.3385 14.667 28.3385H17.3337V28.3385C21.6752 28.3385 26.0001 25.0121 26.0001 20.6706V20.6706Z" stroke="#8691AA" stroke-width="1.7" stroke-linecap="round" stroke-linejoin="round"/>
<path d="M13.3337 22.8339C13.3337 22.8339 14.2231 23.5005 16.0004 23.5005C17.7777 23.5005 18.6671 22.8339 18.6671 22.8339" stroke="#8691AA" stroke-width="1.7" stroke-linecap="round" stroke-linejoin="round"/>
</svg>
