<svg width="40" height="40" viewBox="0 0 40 40" fill="none" xmlns="http://www.w3.org/2000/svg">
<path d="M20 1C24.742 1 28.198 1.00251 30.8389 1.35742C33.4504 1.70844 35.1152 2.38721 36.3623 3.63379V3.63477C37.6108 4.88415 38.2913 6.5493 38.6426 9.16113C38.9978 11.802 39 15.2577 39 20C39 24.7421 38.9977 28.1981 38.6426 30.8389C38.3132 33.2877 37.6952 34.904 36.5908 36.124L36.3633 36.3623L36.3623 36.3633C35.1162 37.6111 33.4522 38.2912 30.8398 38.6426C28.1988 38.9978 24.7422 39 20 39C15.2577 39 11.8013 38.9978 9.16016 38.6426C6.71146 38.3132 5.09497 37.6952 3.87402 36.5908L3.63477 36.3633V36.3623C2.38799 35.1163 1.70852 33.4522 1.35742 30.8398C1.00248 28.1987 1 24.7422 1 20C1 15.2577 1.00245 11.8013 1.35742 9.16016C1.70847 6.54845 2.38788 4.88387 3.63477 3.63574C4.88413 2.38808 6.54915 1.70851 9.16113 1.35742C11.802 1.00246 15.2577 1 20 1Z" stroke="#B1B8C8" stroke-width="2"/>
<path fill-rule="evenodd" clip-rule="evenodd" d="M20 31C14.8146 31 12.2219 31 10.6104 29.3885C9 27.7792 9 25.1854 9 20C9 14.8146 9 12.2219 10.6104 10.6104C12.223 9 14.8146 9 20 9C25.1854 9 27.7781 9 29.3885 10.6104C31 12.223 31 14.8146 31 20C31 25.1854 31 27.7781 29.3885 29.3885C27.7792 31 25.1854 31 20 31Z" fill="#B1B8C8"/>
</svg>
