<svg width="36" height="36" viewBox="0 0 36 36" fill="none" xmlns="http://www.w3.org/2000/svg">
    <symbol id="calendar-icon" viewBox="0 0 36 36">
        <path fill-rule="evenodd" clip-rule="evenodd" d="M10.5 2.625C11.1213 2.625 11.625 3.12868 11.625 3.75V4.89408C12.618 4.87498 13.7121 4.87499 14.9154 4.875H21.0846C22.2879 4.87499 23.382 4.87498 24.375 4.89408V3.75C24.375 3.12868 24.8787 2.625 25.5 2.625C26.1213 2.625 26.625 3.12868 26.625 3.75V4.99063C27.0149 5.02036 27.3841 5.05773 27.7335 5.1047C29.4922 5.34114 30.9156 5.83932 32.0381 6.96186C33.1607 8.08441 33.6589 9.50783 33.8953 11.2665C33.9709 11.8285 34.0216 12.4419 34.0556 13.1101C34.1005 13.2316 34.125 13.3629 34.125 13.5C34.125 13.604 34.1109 13.7047 34.0845 13.8002C34.125 15.0032 34.125 16.3691 34.125 17.9154V21.0846C34.125 23.8413 34.125 26.0247 33.8953 27.7335C33.6589 29.4922 33.1607 30.9156 32.0381 32.0381C30.9156 33.1607 29.4922 33.6589 27.7335 33.8953C26.0247 34.125 23.8413 34.125 21.0846 34.125H14.9154C12.1587 34.125 9.97529 34.125 8.26647 33.8953C6.50783 33.6589 5.08441 33.1607 3.96187 32.0381C2.83932 30.9156 2.34114 29.4922 2.1047 27.7335C1.87496 26.0247 1.87498 23.8413 1.875 21.0846V17.9154C1.87499 16.3691 1.87498 15.0032 1.91551 13.8003C1.88911 13.7047 1.875 13.604 1.875 13.5C1.875 13.3629 1.89952 13.2316 1.9444 13.1101C1.97843 12.4419 2.02914 11.8285 2.1047 11.2665C2.34114 9.50783 2.83932 8.08441 3.96187 6.96186C5.08441 5.83932 6.50783 5.34114 8.26647 5.1047C8.61586 5.05773 8.98509 5.02036 9.375 4.99063V3.75C9.375 3.12868 9.87868 2.625 10.5 2.625ZM4.14463 14.625C4.12548 15.6041 4.125 16.719 4.125 18V21C4.125 23.8602 4.12739 25.8922 4.33464 27.4337C4.53754 28.9429 4.91804 29.8123 5.55286 30.4471C6.18767 31.082 7.05714 31.4625 8.56627 31.6654C10.1078 31.8726 12.1398 31.875 15 31.875H21C23.8602 31.875 25.8922 31.8726 27.4337 31.6654C28.9429 31.4625 29.8123 31.082 30.4471 30.4471C31.082 29.8123 31.4625 28.9429 31.6654 27.4337C31.8726 25.8922 31.875 23.8602 31.875 21V18C31.875 16.719 31.8745 15.6041 31.8554 14.625H4.14463ZM31.7525 12.375H4.24753C4.27155 12.0909 4.30028 11.8219 4.33464 11.5663C4.53754 10.0571 4.91804 9.18767 5.55286 8.55285C6.18767 7.91804 7.05714 7.53754 8.56627 7.33464C10.1078 7.12739 12.1398 7.125 15 7.125H21C23.8602 7.125 25.8922 7.12739 27.4337 7.33464C28.9429 7.53754 29.8123 7.91804 30.4471 8.55285C31.082 9.18767 31.4625 10.0571 31.6654 11.5663C31.6997 11.8219 31.7285 12.0909 31.7525 12.375ZM24 19.875C24.6213 19.875 25.125 20.3787 25.125 21V22.875H27C27.6213 22.875 28.125 23.3787 28.125 24C28.125 24.6213 27.6213 25.125 27 25.125H25.125V27C25.125 27.6213 24.6213 28.125 24 28.125C23.3787 28.125 22.875 27.6213 22.875 27V25.125L21 25.125C20.3787 25.125 19.875 24.6213 19.875 24C19.875 23.3787 20.3787 22.875 21 22.875L22.875 22.875V21C22.875 20.3787 23.3787 19.875 24 19.875Z"/>
    </symbol>
</svg>
