<svg width="48" height="48" viewBox="0 0 48 48" fill="none" xmlns="http://www.w3.org/2000/svg">
<path d="M4 24C4 16.4575 4 12.6863 6.34315 10.3431C8.68629 8 12.4575 8 20 8H28C35.5425 8 39.3137 8 41.6569 10.3431C44 12.6863 44 16.4575 44 24C44 31.5425 44 35.3137 41.6569 37.6569C39.3137 40 35.5425 40 28 40H20C12.4575 40 8.68629 40 6.34315 37.6569C4 35.3137 4 31.5425 4 24Z" stroke="#149EC6" stroke-width="3"/>
<path d="M20 33H12" stroke="#149EC6" stroke-width="3" stroke-linecap="round"/>
<path d="M16 27H12" stroke="#149EC6" stroke-width="3" stroke-linecap="round"/>
<path d="M4 20L44 20" stroke="#149EC6" stroke-width="3" stroke-linecap="round"/>
<path d="M28 30C28 28.1144 28 27.1716 28.5858 26.5858C29.1716 26 30.1144 26 32 26C33.8856 26 34.8284 26 35.4142 26.5858C36 27.1716 36 28.1144 36 30C36 31.8856 36 32.8284 35.4142 33.4142C34.8284 34 33.8856 34 32 34C30.1144 34 29.1716 34 28.5858 33.4142C28 32.8284 28 31.8856 28 30Z" stroke="#149EC6" stroke-width="3"/>
</svg>
