<svg width="46" height="46" viewBox="0 0 46 46" fill="none" xmlns="http://www.w3.org/2000/svg">
<path fill-rule="evenodd" clip-rule="evenodd" d="M23.0002 42.1666C13.965 42.1666 9.44741 42.1666 6.6395 39.3587C3.8335 36.5546 3.8335 32.0351 3.8335 22.9999C3.8335 13.9648 3.8335 9.44717 6.6395 6.63925C9.44933 3.83325 13.965 3.83325 23.0002 3.83325C32.0353 3.83325 36.5529 3.83325 39.3589 6.63925C42.1668 9.44909 42.1668 13.9648 42.1668 22.9999C42.1668 32.0351 42.1668 36.5527 39.3589 39.3587C36.5548 42.1666 32.0353 42.1666 23.0002 42.1666ZM30.7243 17.1924C30.9935 17.462 31.1447 17.8273 31.1447 18.2083C31.1447 18.5892 30.9935 18.9546 30.7243 19.2241L21.141 28.8074C20.8715 29.0766 20.5061 29.2278 20.1252 29.2278C19.7442 29.2278 19.3789 29.0766 19.1093 28.8074L15.276 24.9741C15.1348 24.8425 15.0215 24.6838 14.9429 24.5075C14.8643 24.3311 14.8221 24.1408 14.8187 23.9478C14.8153 23.7547 14.8508 23.563 14.9231 23.384C14.9954 23.205 15.103 23.0424 15.2395 22.9059C15.376 22.7694 15.5386 22.6618 15.7176 22.5895C15.8966 22.5172 16.0883 22.4817 16.2813 22.4851C16.4743 22.4885 16.6647 22.5308 16.841 22.6093C17.0174 22.6879 17.1761 22.8012 17.3077 22.9424L20.1252 25.7599L28.6927 17.1924C28.9622 16.9232 29.3276 16.772 29.7085 16.772C30.0894 16.772 30.4548 16.9232 30.7243 17.1924Z" fill="#6E3AED"/>
</svg>
