<svg width="32" height="32" viewBox="0 0 32 32" fill="none" xmlns="http://www.w3.org/2000/svg">
    <symbol id="check-icon" viewBox="0 0 32 32">
        <path fill-rule="evenodd" clip-rule="evenodd" d="M28.728 6.81463C29.1029 7.18969 29.3135 7.69831 29.3135 8.22863C29.3135 8.75896 29.1029 9.26758 28.728 9.64263L13.7373 24.6333C13.5392 24.8315 13.304 24.9886 13.0451 25.0959C12.7863 25.2031 12.5088 25.2583 12.2286 25.2583C11.9484 25.2583 11.671 25.2031 11.4121 25.0959C11.1533 24.9886 10.9181 24.8315 10.72 24.6333L3.27195 17.1866C3.08093 17.0021 2.92857 16.7815 2.82375 16.5374C2.71893 16.2934 2.66376 16.031 2.66145 15.7654C2.65914 15.4999 2.70975 15.2365 2.81031 14.9907C2.91087 14.7449 3.05938 14.5216 3.24716 14.3338C3.43495 14.1461 3.65825 13.9976 3.90405 13.897C4.14984 13.7964 4.4132 13.7458 4.67876 13.7481C4.94431 13.7504 5.20675 13.8056 5.45076 13.9104C5.69477 14.0152 5.91546 14.1676 6.09995 14.3586L12.228 20.4866L25.8986 6.81463C26.0844 6.62878 26.3049 6.48135 26.5476 6.38076C26.7904 6.28017 27.0505 6.22839 27.3133 6.22839C27.576 6.22839 27.8362 6.28017 28.079 6.38076C28.3217 6.48135 28.5422 6.62878 28.728 6.81463Z"/>
    </symbol>
</svg>
