<svg width="36" height="36" viewBox="0 0 36 36" fill="none" xmlns="http://www.w3.org/2000/svg">
    <symbol id="clock-icon" viewBox="0 0 36 36">
        <path fill-rule="evenodd" clip-rule="evenodd" d="M18 4.1416C10.337 4.1416 4.125 10.3537 4.125 18.0166C4.125 25.6796 10.337 31.8916 18 31.8916C25.663 31.8916 31.875 25.6796 31.875 18.0166C31.875 10.3537 25.663 4.1416 18 4.1416ZM1.875 18.0166C1.875 9.11101 9.09441 1.8916 18 1.8916C26.9056 1.8916 34.125 9.11101 34.125 18.0166C34.125 26.9222 26.9056 34.1416 18 34.1416C9.09441 34.1416 1.875 26.9222 1.875 18.0166ZM18 10.8916C18.6213 10.8916 19.125 11.3953 19.125 12.0166V17.5506L22.5455 20.9711C22.9848 21.4104 22.9848 22.1228 22.5455 22.5621C22.1062 23.0014 21.3938 23.0014 20.9545 22.5621L17.2045 18.8121C16.9935 18.6011 16.875 18.315 16.875 18.0166V12.0166C16.875 11.3953 17.3787 10.8916 18 10.8916Z"/>
    </symbol>
</svg>
