<svg width="32" height="32" viewBox="0 0 32 32" fill="none" xmlns="http://www.w3.org/2000/svg">
<path fill-rule="evenodd" clip-rule="evenodd" d="M16 3.66663C9.18845 3.66663 3.66663 9.18845 3.66663 16C3.66663 22.8115 9.18845 28.3333 16 28.3333C22.8115 28.3333 28.3333 22.8115 28.3333 16C28.3333 9.18845 22.8115 3.66663 16 3.66663ZM1.66663 16C1.66663 8.08388 8.08388 1.66663 16 1.66663C23.916 1.66663 30.3333 8.08388 30.3333 16C30.3333 23.916 23.916 30.3333 16 30.3333C8.08388 30.3333 1.66663 23.916 1.66663 16ZM16 9.66663C16.5522 9.66663 17 10.1143 17 10.6666V15.5857L20.0404 18.6262C20.4309 19.0167 20.4309 19.6499 20.0404 20.0404C19.6499 20.4309 19.0167 20.4309 18.6262 20.0404L15.2929 16.7071C15.1053 16.5195 15 16.2652 15 16V10.6666C15 10.1143 15.4477 9.66663 16 9.66663Z" fill="#3A4052"/>
</svg>
