<svg width="40" height="40" viewBox="0 0 40 40" fill="none" xmlns="http://www.w3.org/2000/svg">
<path d="M30.5774 8.04922C30.9646 7.65551 31.5977 7.65031 31.9915 8.0375C32.3848 8.42482 32.3903 9.05795 32.0032 9.45156L21.6272 20.0004L32.0032 30.5492L32.0715 30.6254C32.3883 31.0208 32.3605 31.6003 31.9915 31.9633C31.6224 32.3262 31.0427 32.3442 30.6526 32.0209L30.5774 31.9516L20.0198 21.2182L9.46314 31.9516L9.38794 32.0209C8.99788 32.3443 8.41815 32.3262 8.04908 31.9633C7.68004 31.6003 7.65217 31.0208 7.969 30.6254L8.03736 30.5492L18.4133 20.0004L8.03736 9.45156C7.65019 9.05795 7.65569 8.42482 8.04908 8.0375C8.44282 7.65031 9.07588 7.65551 9.46314 8.04922L20.0198 18.7816L30.5774 8.04922Z" fill="white"/>
</svg>
