<svg width="32" height="32" viewBox="0 0 32 32" fill="none" xmlns="http://www.w3.org/2000/svg">
<g id="solar:document-text-linear">
<g id="Recipe Icon">
<path id="Vector" d="M4 13.3334C4 8.30541 4 5.79075 5.56267 4.22941C7.12533 2.66808 9.63867 2.66675 14.6667 2.66675H17.3333C22.3613 2.66675 24.876 2.66675 26.4373 4.22941C27.9987 5.79208 28 8.30541 28 13.3334V18.6667C28 23.6947 28 26.2094 26.4373 27.7707C24.8747 29.3321 22.3613 29.3334 17.3333 29.3334H14.6667C9.63867 29.3334 7.124 29.3334 5.56267 27.7707C4.00133 26.2081 4 23.6947 4 18.6667V13.3334Z" stroke="#E81A89" stroke-width="2"/>
<path id="Vector_2" d="M10.6666 16.0001H21.3333M10.6666 10.6667H21.3333M10.6666 21.3334H17.3333" stroke="#E81A89" stroke-width="2" stroke-linecap="round"/>
</g>
</g>
</svg>
