<svg width="48" height="48" viewBox="0 0 48 48" fill="none" xmlns="http://www.w3.org/2000/svg">
<path d="M14.858 6.72399C22.798 1.32799 34.272 4.24799 38.46 12.836M21.714 43.848C31.168 45.164 40 37.79 40 28.42V20.666M14.858 41.212C10.712 38.396 8 33.716 8 28.42V19.516C8 17.146 8.542 14.9 9.514 12.888" stroke="#149EC6" stroke-width="3" stroke-linecap="round" stroke-linejoin="round"/>
<path d="M32 27.6C32 32.24 28.42 36 24 36C19.58 36 16 32.24 16 27.6V20.4C16 19.112 16.276 17.892 16.77 16.8M24 12C28.42 12 32 15.76 32 20.4M24 21V27" stroke="#149EC6" stroke-width="3" stroke-linecap="round" stroke-linejoin="round"/>
</svg>
