<svg width="25" height="24" viewBox="0 0 25 24" fill="none" xmlns="http://www.w3.org/2000/svg">
<path fill-rule="evenodd" clip-rule="evenodd" d="M15.5299 1.46995C15.6703 1.61058 15.7492 1.8012 15.7492 1.99995C15.7492 2.1987 15.6703 2.38933 15.5299 2.52995C15.1139 2.94728 14.7405 3.38728 14.4099 3.84995L15.6169 5.05695C15.7493 5.19913 15.8215 5.38717 15.818 5.58147C15.8146 5.77577 15.7359 5.96116 15.5985 6.09857C15.4611 6.23599 15.2757 6.3147 15.0814 6.31813C14.8871 6.32155 14.699 6.24943 14.5569 6.11695L13.6089 5.16895C13.3982 5.58362 13.2199 6.00562 13.0739 6.43495L17.9529 11.313C17.9878 11.3498 18.0199 11.3892 18.0489 11.431C18.4617 11.2901 18.8649 11.1224 19.2559 10.929L16.2479 7.91995C16.1742 7.85129 16.1151 7.76849 16.0741 7.67649C16.0331 7.58449 16.0111 7.48518 16.0093 7.38447C16.0075 7.28377 16.026 7.18374 16.0637 7.09035C16.1015 6.99696 16.1576 6.91213 16.2288 6.84091C16.3001 6.76969 16.3849 6.71355 16.4783 6.67583C16.5717 6.63811 16.6717 6.61958 16.7724 6.62136C16.8731 6.62314 16.9724 6.64518 17.0644 6.68617C17.1564 6.72716 17.2392 6.78626 17.3079 6.85995L20.5839 10.135C21.0705 9.79362 21.5325 9.40495 21.9699 8.96895C22.0385 8.89526 22.1213 8.83616 22.2133 8.79517C22.3053 8.75418 22.4046 8.73214 22.5053 8.73036C22.6061 8.72858 22.7061 8.74711 22.7995 8.78483C22.8929 8.82255 22.9777 8.87869 23.0489 8.94991C23.1201 9.02113 23.1763 9.10597 23.214 9.19935C23.2517 9.29274 23.2702 9.39277 23.2685 9.49347C23.2667 9.59418 23.2446 9.69349 23.2037 9.78549C23.1627 9.87749 23.1036 9.96029 23.0299 10.029C20.4079 12.652 16.7659 13.8829 13.4739 13.242C14.2239 16.417 13.0739 19.986 10.5299 22.5289C10.4612 22.6026 10.3784 22.6617 10.2864 22.7027C10.1944 22.7437 10.0951 22.7658 9.99439 22.7675C9.89369 22.7693 9.79366 22.7508 9.70027 22.7131C9.60688 22.6754 9.52205 22.6192 9.45083 22.548C9.37961 22.4768 9.32347 22.3919 9.28575 22.2985C9.24803 22.2052 9.2295 22.1051 9.23128 22.0044C9.23305 21.9037 9.2551 21.8044 9.29609 21.7124C9.33708 21.6204 9.39618 21.5376 9.46987 21.469C9.89731 21.04 10.2849 20.5731 10.6279 20.0739L9.27387 18.721C9.20227 18.6517 9.14517 18.5689 9.10591 18.4774C9.06665 18.3859 9.046 18.2875 9.04519 18.1879C9.04437 18.0883 9.06339 17.9896 9.10115 17.8974C9.1389 17.8053 9.19463 17.7215 9.26508 17.6512C9.33553 17.5808 9.4193 17.5251 9.51149 17.4874C9.60368 17.4498 9.70245 17.4309 9.80203 17.4318C9.90161 17.4327 10 17.4534 10.0915 17.4928C10.183 17.5321 10.2657 17.5893 10.3349 17.6609L11.3979 18.7229C11.5839 18.319 11.7382 17.9096 11.8609 17.495L11.8129 17.451L6.99987 12.64C6.55987 12.77 6.12587 12.9363 5.69787 13.139L8.52887 15.969C8.6697 16.1095 8.74892 16.3003 8.74911 16.4992C8.7493 16.6982 8.67043 16.8891 8.52987 17.03C8.3893 17.1708 8.19855 17.25 7.99958 17.2502C7.8006 17.2504 7.6097 17.1715 7.46887 17.031L4.35687 13.918C3.8902 14.2433 3.44754 14.6139 3.02887 15.03C2.8867 15.1624 2.69865 15.2346 2.50435 15.2311C2.31005 15.2277 2.12466 15.149 1.98725 15.0116C1.84984 14.8742 1.77112 14.6888 1.76769 14.4945C1.76427 14.3002 1.83639 14.1121 1.96887 13.97C4.51187 11.426 8.08087 10.277 11.2559 11.026C10.6159 7.73395 11.8459 4.09195 14.4689 1.46995C14.6095 1.3295 14.8001 1.25061 14.9989 1.25061C15.1976 1.25061 15.3892 1.3295 15.5299 1.46995ZM16.3489 11.832L12.6689 8.14995C12.5099 9.31995 12.5959 10.484 12.9399 11.562C14.0179 11.906 15.1819 11.992 16.3519 11.833M11.8319 12.955C12.1309 13.8219 12.2449 14.7549 12.1849 15.702L8.80087 12.318C9.74787 12.2579 10.6809 12.372 11.5479 12.6709L11.7599 12.743L11.8319 12.955Z" fill="#677490"/>
</svg>
