<svg width="36" height="36" viewBox="0 0 36 36" fill="none" xmlns="http://www.w3.org/2000/svg">
    <symbol id="home-icon" viewBox="0 0 36 36">
        <path d="M14.1699 23.0962C13.6708 22.7262 12.9662 22.8309 12.5962 23.3301C12.2262 23.8292 12.3309 24.5338 12.8301 24.9038C14.2887 25.985 16.0725 26.625 18 26.625C19.9275 26.625 21.7113 25.985 23.1699 24.9038C23.6691 24.5338 23.7738 23.8292 23.4038 23.3301C23.0338 22.8309 22.3292 22.7262 21.8301 23.0962C20.7376 23.906 19.4189 24.375 18 24.375C16.5812 24.375 15.2624 23.906 14.1699 23.0962Z"/>
        <path fill-rule="evenodd" clip-rule="evenodd" d="M18 1.875C16.9378 1.875 15.9728 2.17923 14.9258 2.68836C13.9138 3.18052 12.7446 3.90613 11.2843 4.81248L8.18443 6.73635C6.80263 7.59391 5.69616 8.2806 4.84335 8.93371C3.96022 9.61004 3.28192 10.2988 2.79197 11.1939C2.30303 12.0872 2.08285 13.0376 1.97728 14.1611C1.87498 15.2498 1.87499 16.5812 1.875 18.2508V20.6698C1.87498 23.5256 1.87496 25.7799 2.10406 27.5424C2.33906 29.3504 2.83284 30.8101 3.94854 31.9642C5.06938 33.1235 6.49569 33.6415 8.26141 33.8871C9.97273 34.125 12.1583 34.125 14.9128 34.125H21.0871C23.8416 34.125 26.0273 34.125 27.7386 33.8871C29.5043 33.6415 30.9306 33.1235 32.0515 31.9642C33.1672 30.8101 33.6609 29.3504 33.8959 27.5424C34.125 25.7799 34.125 23.5256 34.125 20.6698V18.2508C34.125 16.5812 34.125 15.2498 34.0227 14.1611C33.9172 13.0376 33.697 12.0872 33.208 11.1939C32.7181 10.2988 32.0398 9.61004 31.1566 8.93371C30.3038 8.28061 29.1974 7.59393 27.8156 6.73637L24.7157 4.81247C23.2554 3.90613 22.0862 3.18051 21.0742 2.68836C20.0272 2.17923 19.0622 1.875 18 1.875ZM12.4193 6.75618C13.9429 5.81056 15.0142 5.1473 15.9098 4.71179C16.7823 4.28749 17.4003 4.125 18 4.125C18.5997 4.125 19.2177 4.28749 20.0902 4.71179C20.9858 5.1473 22.0571 5.81056 23.5807 6.75618L26.5807 8.61806C28.022 9.51254 29.0339 10.142 29.7886 10.72C30.523 11.2825 30.9455 11.7466 31.2344 12.2743C31.5242 12.8038 31.6934 13.423 31.7826 14.3716C31.8739 15.3429 31.875 16.5687 31.875 18.3059V20.5874C31.875 23.5439 31.8728 25.6517 31.6647 27.2524C31.4604 28.8245 31.0755 29.7366 30.4338 30.4003C29.7973 31.0587 28.9307 31.4496 27.4287 31.6585C25.8903 31.8724 23.8613 31.875 21 31.875H15C12.1387 31.875 10.1097 31.8724 8.57133 31.6585C7.06929 31.4496 6.2027 31.0587 5.56618 30.4003C4.92452 29.7366 4.53962 28.8245 4.33529 27.2524C4.12724 25.6517 4.125 23.5439 4.125 20.5874V18.3059C4.125 16.5687 4.12614 15.3429 4.21742 14.3716C4.30655 13.423 4.47577 12.8038 4.76564 12.2743C5.05448 11.7466 5.47699 11.2825 6.21138 10.72C6.96615 10.142 7.97804 9.51254 9.41929 8.61806L12.4193 6.75618Z"/>
    </symbol>
</svg>
