<svg width="25" height="24" viewBox="0 0 25 24" fill="none" xmlns="http://www.w3.org/2000/svg">
<path d="M3.5 12C3.5 15.771 3.5 19.657 4.818 20.828C6.136 22 8.258 22 12.5 22C16.742 22 18.864 22 20.182 20.828C21.5 19.656 21.5 15.771 21.5 12" stroke="#8691AA" stroke-width="1.5"/>
<path d="M15.16 14.202L21.168 12.4C21.763 12.221 22.061 12.132 22.25 11.918C22.287 11.8762 22.3205 11.8314 22.35 11.784C22.5 11.541 22.5 11.231 22.5 10.609C22.5 8.159 22.5 6.934 21.827 6.107C21.6976 5.94788 21.5521 5.80245 21.393 5.673C20.566 5 19.341 5 16.891 5H8.11C5.66 5 4.435 5 3.608 5.673C3.448 5.803 3.30333 5.94767 3.174 6.107C2.5 6.934 2.5 8.159 2.5 10.609C2.5 11.231 2.5 11.541 2.65 11.784C2.68 11.8307 2.71333 11.8753 2.75 11.918C2.94 12.132 3.237 12.221 3.832 12.4L9.84 14.202M7 5C7.823 4.98 8.66 4.455 8.94 3.68L8.975 3.577L9 3.5C9.042 3.373 9.064 3.31 9.086 3.254C9.22726 2.90281 9.46529 2.59892 9.77241 2.37765C10.0795 2.15638 10.4432 2.02681 10.821 2.004C10.88 2 10.948 2 11.08 2H13.918C14.051 2 14.118 2 14.178 2.004C14.5558 2.02681 14.9195 2.15638 15.2266 2.37765C15.5337 2.59892 15.7717 2.90281 15.913 3.254C15.936 3.31 15.957 3.374 15.999 3.5L16.025 3.577C16.043 3.63 16.051 3.657 16.06 3.68C16.34 4.455 17.176 4.98 17.999 5" stroke="#8691AA" stroke-width="1.5"/>
<path d="M14.5 12.5H10.5C10.3674 12.5 10.2402 12.5527 10.1464 12.6464C10.0527 12.7402 10 12.8674 10 13V15.162C10 15.2619 10.0299 15.3594 10.0859 15.4421C10.1419 15.5248 10.2213 15.5889 10.314 15.626L11.014 15.906C11.9679 16.2877 13.0321 16.2877 13.986 15.906L14.686 15.626C14.7787 15.5889 14.8581 15.5248 14.9141 15.4421C14.9701 15.3594 15 15.2619 15 15.162V13C15 12.8674 14.9473 12.7402 14.8536 12.6464C14.7598 12.5527 14.6326 12.5 14.5 12.5Z" stroke="#8691AA" stroke-width="1.5" stroke-linecap="round"/>
</svg>
