<svg width="20" height="20" viewBox="0 0 20 20" fill="none" xmlns="http://www.w3.org/2000/svg">
<path d="M3.33334 8.45234C3.33334 4.70484 6.31834 1.6665 10 1.6665C13.6817 1.6665 16.6667 4.70484 16.6667 8.45234C16.6667 12.1707 14.5392 16.5107 11.2192 18.0615C10.8376 18.2402 10.4214 18.3328 10 18.3328C9.57865 18.3328 9.16244 18.2402 8.78084 18.0615C5.46084 16.5098 3.33334 12.1715 3.33334 8.45317V8.45234Z" stroke="#8463F6" stroke-width="1.5"/>
<path d="M10 10.833C11.3807 10.833 12.5 9.71372 12.5 8.33301C12.5 6.9523 11.3807 5.83301 10 5.83301C8.61929 5.83301 7.5 6.9523 7.5 8.33301C7.5 9.71372 8.61929 10.833 10 10.833Z" stroke="#8463F6" stroke-width="1.5"/>
</svg>
