<svg width="25" height="24" viewBox="0 0 25 24" fill="none" xmlns="http://www.w3.org/2000/svg">
<path d="M17.1292 13.891L17.5852 13.438L16.5262 12.374L16.0722 12.827L17.1292 13.891ZM19.1142 13.248L21.0252 14.287L21.7402 12.969L19.8302 11.931L19.1142 13.248ZM21.3922 16.351L19.9722 17.764L21.0292 18.827L22.4492 17.415L21.3922 16.351ZM19.1062 18.218C17.6562 18.354 13.9062 18.233 9.84417 14.195L8.78617 15.258C13.2182 19.665 17.4372 19.881 19.2462 19.712L19.1062 18.218ZM9.84417 14.195C5.97317 10.345 5.33117 7.10796 5.25117 5.70296L3.75317 5.78796C3.85317 7.55596 4.64817 11.144 8.78617 15.258L9.84417 14.195ZM11.2192 8.01496L11.5062 7.72896L10.4502 6.66596L10.1632 6.95096L11.2192 8.01496ZM11.7342 4.09396L10.4742 2.40996L9.27317 3.30996L10.5332 4.99296L11.7342 4.09396ZM6.23317 2.04296L4.66317 3.60296L5.72117 4.66696L7.29017 3.10696L6.23317 2.04296ZM10.6912 7.48296C10.1612 6.95096 10.1612 6.95096 10.1612 6.95296H10.1592L10.1562 6.95696C10.1087 7.00487 10.0661 7.05748 10.0292 7.11396C9.97517 7.19396 9.91617 7.29896 9.86617 7.43196C9.74445 7.77529 9.71412 8.14437 9.77817 8.50296C9.91217 9.36796 10.5082 10.511 12.0342 12.029L13.0922 10.965C11.6632 9.54496 11.3232 8.68096 11.2602 8.27296C11.2302 8.07896 11.2612 7.98296 11.2702 7.96096C11.2762 7.94763 11.2762 7.94563 11.2702 7.95496C11.2613 7.96876 11.2512 7.9818 11.2402 7.99396L11.2302 8.00396L11.2202 8.01296L10.6912 7.48296ZM12.0342 12.029C13.5612 13.547 14.7102 14.139 15.5762 14.271C16.0192 14.339 16.3762 14.285 16.6472 14.184C16.799 14.1284 16.9408 14.0487 17.0672 13.948L17.1172 13.903L17.1242 13.897L17.1272 13.894L17.1282 13.892C17.1282 13.892 17.1292 13.891 16.6002 13.359C16.0702 12.827 16.0732 12.826 16.0732 12.826L16.0752 12.824L16.0772 12.822L16.0832 12.817L16.0932 12.807L16.1312 12.777C16.1405 12.771 16.1382 12.7716 16.1242 12.779C16.0992 12.788 16.0012 12.819 15.8042 12.789C15.3902 12.725 14.5202 12.385 13.0922 10.965L12.0342 12.029ZM10.4742 2.40896C9.45417 1.04896 7.45017 0.83296 6.23317 2.04296L7.29017 3.10696C7.82217 2.57796 8.76617 2.63296 9.27317 3.30996L10.4742 2.40896ZM5.25217 5.70396C5.23217 5.35796 5.39117 4.99596 5.72117 4.66796L4.66217 3.60396C4.12517 4.13796 3.70217 4.89396 3.75317 5.78796L5.25217 5.70396ZM19.9722 17.764C19.6982 18.038 19.4022 18.192 19.1072 18.219L19.2462 19.712C19.9812 19.643 20.5822 19.273 21.0302 18.828L19.9722 17.764ZM11.5062 7.72896C12.4912 6.74996 12.5642 5.20296 11.7352 4.09496L10.5342 4.99396C10.9372 5.53296 10.8772 6.23996 10.4492 6.66696L11.5062 7.72896ZM21.0262 14.288C21.8432 14.732 21.9702 15.778 21.3932 16.352L22.4512 17.415C23.7912 16.082 23.3782 13.859 21.7412 12.97L21.0262 14.288ZM17.5852 13.439C17.9692 13.057 18.5872 12.963 19.1152 13.249L19.8312 11.932C18.7472 11.342 17.4032 11.505 16.5272 12.375L17.5852 13.439Z" fill="#677490"/>
</svg>
