<svg width="18" height="23" viewBox="0 0 18 23" fill="none" xmlns="http://www.w3.org/2000/svg">
<path d="M1 9.643C1 5.146 4.582 1.5 9 1.5C13.418 1.5 17 5.146 17 9.643C17 14.105 14.447 19.313 10.463 21.174C10.0051 21.3884 9.50563 21.4996 9 21.4996C8.49437 21.4996 7.99492 21.3884 7.537 21.174C3.553 19.312 1 14.106 1 9.644V9.643Z" stroke="#434B61" stroke-width="1.5"/>
<path d="M9 12.5C10.6569 12.5 12 11.1569 12 9.5C12 7.84315 10.6569 6.5 9 6.5C7.34315 6.5 6 7.84315 6 9.5C6 11.1569 7.34315 12.5 9 12.5Z" stroke="#434B61" stroke-width="1.5"/>
</svg>
