<svg width="36" height="36" viewBox="0 0 36 36" fill="none" xmlns="http://www.w3.org/2000/svg">
<path fill-rule="evenodd" clip-rule="evenodd" d="M18.5 12.375C15.3934 12.375 12.875 14.8934 12.875 18C12.875 21.1066 15.3934 23.625 18.5 23.625C21.6066 23.625 24.125 21.1066 24.125 18C24.125 14.8934 21.6066 12.375 18.5 12.375ZM15.125 18C15.125 16.136 16.636 14.625 18.5 14.625C20.364 14.625 21.875 16.136 21.875 18C21.875 19.864 20.364 21.375 18.5 21.375C16.636 21.375 15.125 19.864 15.125 18Z" fill="#1A1C23"/>
<path fill-rule="evenodd" clip-rule="evenodd" d="M18.4621 1.875C17.7954 1.87499 17.2389 1.87498 16.7819 1.90616C16.3063 1.93861 15.857 2.00857 15.4214 2.189C14.4107 2.60766 13.6076 3.41069 13.189 4.42143C12.971 4.94762 12.912 5.50218 12.8895 6.10495C12.8713 6.58949 12.6268 6.99376 12.2659 7.20211C11.9051 7.41046 11.4327 7.4201 11.004 7.19352C10.4707 6.91165 9.96093 6.68549 9.39625 6.61115C8.31159 6.46835 7.21463 6.76228 6.34669 7.42828C5.97264 7.71529 5.68741 8.06941 5.42148 8.4651C5.16602 8.84522 4.88775 9.32722 4.55441 9.9046L4.51653 9.97021C4.18318 10.5476 3.90489 11.0296 3.70343 11.4408C3.49371 11.869 3.32966 12.2931 3.26812 12.7605C3.12532 13.8452 3.41925 14.9421 4.08525 15.8101C4.43192 16.2619 4.88259 16.5902 5.39325 16.9111C5.80392 17.1691 6.03182 17.5832 6.03179 18C6.03177 18.4167 5.80388 18.8307 5.39326 19.0887C4.88254 19.4096 4.43181 19.738 4.0851 20.1898C3.4191 21.0578 3.12517 22.1547 3.26797 23.2394C3.32951 23.7068 3.49356 24.1309 3.70328 24.5591C3.90474 24.9703 4.18302 25.4523 4.51637 26.0297L4.55426 26.0953C4.8876 26.6727 5.16587 27.1547 5.42133 27.5348C5.68726 27.9305 5.9725 28.2846 6.34654 28.5716C7.21448 29.2376 8.31144 29.5315 9.3961 29.3887C9.96075 29.3144 10.4705 29.0883 11.0038 28.8064C11.4325 28.5798 11.9049 28.5895 12.2659 28.7978C12.6268 29.0062 12.8713 29.4105 12.8895 29.8951C12.912 30.4979 12.971 31.0524 13.189 31.5786C13.6076 32.5893 14.4107 33.3923 15.4214 33.811C15.857 33.9914 16.3063 34.0614 16.7819 34.0938C17.2389 34.125 17.7954 34.125 18.4621 34.125H18.5379C19.2046 34.125 19.7611 34.125 20.218 34.0938C20.6937 34.0614 21.143 33.9914 21.5786 33.811C22.5893 33.3923 23.3923 32.5893 23.811 31.5786C24.029 31.0524 24.088 30.4978 24.1105 29.895C24.1286 29.4105 24.3732 29.0062 24.734 28.7978C25.0949 28.5894 25.5674 28.5797 25.9961 28.8064C26.5294 29.0882 27.0391 29.3143 27.6037 29.3886C28.6884 29.5314 29.7853 29.2375 30.6533 28.5715C31.0273 28.2845 31.3126 27.9304 31.5785 27.5347C31.8339 27.1546 32.1122 26.6726 32.4455 26.0953L32.4834 26.0296C32.8167 25.4523 33.0951 24.9702 33.2965 24.5589C33.5063 24.1308 33.6703 23.7067 33.7319 23.2393C33.8747 22.1546 33.5807 21.0577 32.9147 20.1897C32.568 19.7379 32.1173 19.4095 31.6066 19.0886C31.196 18.8306 30.9682 18.4167 30.9682 17.9999C30.9682 17.5832 31.1961 17.1693 31.6066 16.9114C32.1174 16.5904 32.5681 16.262 32.9149 15.8102C33.5809 14.9422 33.8748 13.8453 33.732 12.7606C33.6705 12.2932 33.5064 11.8691 33.2967 11.441C33.0952 11.0297 32.817 10.5477 32.4837 9.97043L32.4457 9.90477C32.1124 9.32738 31.8341 8.84533 31.5786 8.46521C31.3127 8.06951 31.0275 7.7154 30.6534 7.42838C29.7855 6.76238 28.6885 6.46845 27.6039 6.61125C27.0392 6.68559 26.5295 6.91173 25.9962 7.19357C25.5675 7.42018 25.095 7.41054 24.7341 7.20217C24.3732 6.99379 24.1286 6.58946 24.1105 6.10486C24.088 5.50212 24.0289 4.9476 23.811 4.42143C23.3923 3.41069 22.5893 2.60766 21.5786 2.189C21.143 2.00857 20.6937 1.93861 20.218 1.90616C19.7611 1.87498 19.2046 1.87499 18.5379 1.875H18.4621ZM16.2825 4.26773C16.3982 4.21979 16.574 4.17557 16.9351 4.15094C17.3063 4.12561 17.7857 4.125 18.5 4.125C19.2143 4.125 19.6937 4.12561 20.0649 4.15094C20.426 4.17557 20.6018 4.21979 20.7175 4.26773C21.1769 4.45803 21.542 4.82304 21.7323 5.28247C21.7923 5.42739 21.842 5.65331 21.8621 6.18896C21.9065 7.37752 22.52 8.52193 23.6091 9.15072C24.6982 9.77952 25.996 9.7386 27.0476 9.18282C27.5215 8.93235 27.742 8.86248 27.8976 8.842C28.3906 8.7771 28.8892 8.9107 29.2837 9.21343C29.3831 9.28968 29.5093 9.41984 29.7112 9.72024C29.9187 10.029 30.1589 10.4439 30.5161 11.0625C30.8732 11.6811 31.1124 12.0966 31.2761 12.4307C31.4353 12.7557 31.4849 12.9301 31.5013 13.0543C31.5662 13.5473 31.4326 14.0459 31.1298 14.4405C31.0343 14.5649 30.8635 14.721 30.4096 15.0062C29.4026 15.6389 28.7183 16.7423 28.7182 17.9998C28.7181 19.2574 29.4025 20.361 30.4096 20.9938C30.8634 21.2789 31.0342 21.435 31.1297 21.5594C31.4324 21.954 31.566 22.4526 31.5011 22.9456C31.4848 23.0698 31.4351 23.2442 31.2759 23.5692C31.1123 23.9033 30.8731 24.3188 30.5159 24.9374C30.1588 25.556 29.9186 25.9709 29.711 26.2797C29.5092 26.5801 29.3829 26.7102 29.2836 26.7865C28.8891 27.0892 28.3904 27.2228 27.8974 27.1579C27.7419 27.1374 27.5214 27.0676 27.0475 26.8171C25.9959 26.2613 24.698 26.2204 23.6089 26.8493C22.5199 27.4781 21.9065 28.6224 21.8621 29.8109C21.8421 30.3467 21.7923 30.5726 21.7323 30.7175C21.542 31.177 21.1769 31.542 20.7175 31.7323C20.6018 31.7802 20.426 31.8244 20.0649 31.8491C19.6937 31.8744 19.2143 31.875 18.5 31.875C17.7857 31.875 17.3063 31.8744 16.9351 31.8491C16.574 31.8244 16.3982 31.7802 16.2825 31.7323C15.823 31.542 15.458 31.177 15.2677 30.7175C15.2077 30.5726 15.1579 30.3467 15.1379 29.811C15.0934 28.6225 14.48 27.4781 13.3909 26.8493C12.3018 26.2205 11.0039 26.2614 9.95237 26.8172C9.47847 27.0677 9.25794 27.1375 9.10242 27.158C8.60939 27.2229 8.11077 27.0893 7.71625 26.7866C7.61688 26.7103 7.49067 26.5802 7.28879 26.2798C7.08126 25.971 6.84104 25.5561 6.48388 24.9375C6.12673 24.3189 5.88757 23.9034 5.7239 23.5693C5.56469 23.2443 5.51507 23.0699 5.49872 22.9457C5.43382 22.4527 5.56742 21.9541 5.87014 21.5595C5.96564 21.4351 6.13641 21.279 6.5903 20.9938C7.59738 20.3611 8.28173 19.2576 8.28179 18.0001C8.28186 16.7424 7.59748 15.6388 6.59032 15.006C6.13653 14.7208 5.96577 14.5648 5.87029 14.4404C5.56757 14.0458 5.43396 13.5472 5.49887 13.0542C5.51522 12.93 5.56484 12.7556 5.72405 12.4306C5.88771 12.0965 6.12688 11.681 6.48403 11.0624C6.84118 10.4438 7.0814 10.0289 7.28894 9.72013C7.49082 9.41974 7.61702 9.28958 7.7164 9.21332C8.11092 8.9106 8.60954 8.77699 9.10257 8.8419C9.2581 8.86238 9.47864 8.93225 9.9526 9.18276C11.0041 9.73853 12.3019 9.77943 13.3909 9.15068C14.48 8.52192 15.0934 7.37756 15.1379 6.18903C15.1579 5.65333 15.2077 5.4274 15.2677 5.28247C15.458 4.82304 15.823 4.45803 16.2825 4.26773Z" fill="#1A1C23"/>
</svg>
