<svg width="24" height="24" viewBox="0 0 24 24" fill="none" xmlns="http://www.w3.org/2000/svg">
<path d="M13.2899 5.78995C13.4379 6.32595 13.4619 6.97495 13.0689 7.36895L11.7889 8.64895C11.7731 8.66515 11.7615 8.68494 11.755 8.70663C11.7485 8.72832 11.7474 8.75126 11.7517 8.77348C11.7561 8.7957 11.7657 8.81653 11.7798 8.83421C11.794 8.85188 11.8122 8.86586 11.8329 8.87495C13.3121 9.50912 14.4908 10.6878 15.1249 12.1669C15.134 12.1879 15.148 12.2063 15.1657 12.2205C15.1835 12.2348 15.2045 12.2445 15.2268 12.2489C15.2492 12.2532 15.2723 12.252 15.2941 12.2454C15.3159 12.2388 15.3358 12.227 15.3519 12.2109L16.6319 10.9309C17.0249 10.5379 17.6739 10.5619 18.2099 10.7109C19.2239 10.9909 20.5189 10.6059 21.2619 9.86295C21.7344 9.39059 21.9999 8.7499 22 8.0818C22.0001 7.4137 21.7348 6.77293 21.2624 6.30045C21.0286 6.0665 20.7509 5.8809 20.4453 5.75427C20.1397 5.62763 19.8121 5.56242 19.4813 5.56238C18.8132 5.56228 18.1724 5.8276 17.6999 6.29995C18.1723 5.82746 18.4376 5.18669 18.4375 4.51859C18.4374 3.85049 18.1719 3.2098 17.6994 2.73745C17.227 2.2651 16.5862 1.99978 15.9181 1.99988C15.25 1.99997 14.6093 2.26546 14.1369 2.73795M9.86295 21.2619C9.62906 21.4959 9.35139 21.6815 9.04578 21.8081C8.74017 21.9348 8.41261 22 8.0818 22C7.4137 22.0001 6.77293 21.7348 6.30045 21.2624C5.82796 20.7901 5.56247 20.1494 5.56238 19.4813C5.56228 18.8132 5.8276 18.1724 6.29995 17.6999C5.82746 18.1723 5.18669 18.4376 4.51859 18.4375C3.85049 18.4374 3.2098 18.1719 2.73745 17.6994C2.2651 17.227 1.99978 16.5862 1.99988 15.9181C1.99997 15.25 2.26546 14.6093 2.73795 14.1369C3.48095 13.3939 4.77595 13.0089 5.78995 13.2889C6.32595 13.4379 6.97495 13.4619 7.36895 13.0689L8.64895 11.7889C8.66515 11.7731 8.68494 11.7615 8.70663 11.755C8.72832 11.7485 8.75126 11.7474 8.77348 11.7517C8.7957 11.7561 8.81653 11.7657 8.83421 11.7798C8.85188 11.794 8.86586 11.8122 8.87495 11.8329C9.50912 13.3121 10.6878 14.4908 12.1669 15.1249C12.1879 15.134 12.2063 15.148 12.2205 15.1657C12.2348 15.1835 12.2445 15.2045 12.2489 15.2268C12.2532 15.2492 12.252 15.2723 12.2454 15.2941C12.2388 15.3159 12.227 15.3358 12.2109 15.3519L10.9309 16.6319C10.5379 17.0249 10.5619 17.6739 10.7109 18.2099" stroke="#1A1C23" stroke-width="1.5" stroke-linecap="round" stroke-linejoin="round"/>
<path d="M17.657 17.657L19.071 19.071M6.343 6.343L4.93 4.93M15 19V20M5 9H4M19 15H20M9 5V4" stroke="#1A1C23" stroke-width="1.5" stroke-linecap="round"/>
</svg>
