<svg width="32" height="33" viewBox="0 0 32 33" fill="none" xmlns="http://www.w3.org/2000/svg">
<path d="M12 19.8374V23.5241C12 25.2922 12.7024 26.9879 13.9526 28.2381C15.2029 29.4884 16.8986 30.1907 18.6667 30.1907H19.8427C21.039 30.1905 22.2026 29.7997 23.1566 29.0777C24.1106 28.3557 24.8028 27.3421 25.128 26.1907" stroke="#8463F6" stroke-width="2"/>
<path d="M7.23875 4.85718H7.11608C6.69875 4.85718 6.48941 4.85718 6.31475 4.87318C5.37931 4.95592 4.5028 5.36515 3.83876 6.02919C3.17472 6.69323 2.76549 7.56974 2.68275 8.50518C2.66675 8.68118 2.66675 8.88918 2.66675 9.30518V10.5052C2.66675 12.9805 3.65008 15.3545 5.40042 17.1048C7.15076 18.8552 9.52473 19.8385 12.0001 19.8385C13.1758 19.8385 14.34 19.6069 15.4262 19.157C16.5124 18.707 17.4993 18.0475 18.3306 17.2161C19.1619 16.3846 19.8212 15.3976 20.271 14.3114C20.7208 13.2251 20.9523 12.0609 20.9521 10.8852V9.30651C20.9521 8.88918 20.9521 8.67984 20.9374 8.50518C20.8547 7.56974 20.4454 6.69323 19.7814 6.02919C19.1174 5.36515 18.2409 4.95592 17.3054 4.87318C17.1294 4.85718 16.9201 4.85718 16.5027 4.85718H16.3814" stroke="#8463F6" stroke-width="2" stroke-linecap="round"/>
<path d="M25.3335 26.1904C27.5426 26.1904 29.3335 24.3996 29.3335 22.1904C29.3335 19.9813 27.5426 18.1904 25.3335 18.1904C23.1244 18.1904 21.3335 19.9813 21.3335 22.1904C21.3335 24.3996 23.1244 26.1904 25.3335 26.1904Z" stroke="#8463F6" stroke-width="2"/>
<path d="M16 3.52393V6.19059M8 3.52393V6.19059" stroke="#8463F6" stroke-width="2" stroke-linecap="round"/>
</svg>
